<?xml version="1.0" encoding="UTF-8"?>
<svg id="NBE_LOGO_COLOR" data-name="NBE LOGO COLOR" xmlns="http://www.w3.org/2000/svg" viewBox="0 0 311.81 181.42">
  <defs>
    <style>
      .cls-1 {
        stroke: #000;
        stroke-linecap: round;
        stroke-linejoin: round;
      }

      .cls-2 {
        fill: #6a6a6a;
      }
    </style>
  </defs>
  <g>
    <path class="cls-2" d="M35.6,174.91c-.4-.71-.72-1.97-.97-3.79-3.2,2.97-7.02,4.45-11.45,4.45-3.97,0-7.22-1-9.76-3-2.54-2-3.81-4.54-3.81-7.62,0-3.74,1.59-6.65,4.78-8.72,3.19-2.07,7.67-3.1,13.44-3.1h6.69v-2.82c0-2.15-.72-3.86-2.16-5.13-1.44-1.27-3.56-1.91-6.36-1.91-2.45,0-4.51.55-6.17,1.66-1.66,1.11-2.49,2.45-2.49,4.02h-6.92c0-1.79.71-3.52,2.14-5.2,1.43-1.67,3.36-2.99,5.8-3.97,2.44-.97,5.12-1.46,8.05-1.46,4.64,0,8.27,1.04,10.9,3.1,2.63,2.07,3.99,4.92,4.09,8.55v16.54c0,3.3.47,5.92,1.41,7.87v.53h-7.21ZM24.18,170.23c2.16,0,4.2-.5,6.14-1.49s3.33-2.29,4.2-3.88v-7.37h-5.39c-8.43,0-12.64,2.2-12.64,6.61,0,1.93.72,3.43,2.16,4.52,1.44,1.08,3.29,1.63,5.54,1.63Z"/>
    <path class="cls-2" d="M78.17,171.35c-2.68,2.81-6.61,4.22-11.79,4.22-4.29,0-7.56-1.11-9.8-3.34-2.24-2.22-3.38-5.52-3.4-9.88v-23.38h6.88v23.21c0,5.45,2.48,8.17,7.44,8.17,5.25,0,8.75-1.75,10.49-5.25v-26.13h6.88v35.93h-6.54l-.15-3.55Z"/>
    <path class="cls-2" d="M119.88,165.38c0-1.66-.7-2.95-2.1-3.87-1.4-.92-3.84-1.71-7.33-2.37s-6.25-1.46-8.29-2.39c-2.04-.93-3.56-2.04-4.54-3.32-.98-1.28-1.47-2.81-1.47-4.58,0-2.94,1.39-5.43,4.18-7.47,2.79-2.04,6.35-3.05,10.69-3.05,4.56,0,8.26,1.05,11.1,3.15,2.84,2.1,4.26,4.79,4.26,8.07h-6.92c0-1.68-.8-3.13-2.4-4.35-1.6-1.22-3.61-1.83-6.04-1.83s-4.46.49-5.88,1.46c-1.41.97-2.12,2.25-2.12,3.82,0,1.48.66,2.6,1.97,3.35,1.31.75,3.69,1.47,7.12,2.16,3.43.69,6.22,1.51,8.35,2.46,2.13.95,3.71,2.1,4.74,3.44,1.03,1.34,1.54,2.97,1.54,4.9,0,3.21-1.44,5.78-4.31,7.72-2.88,1.94-6.61,2.91-11.19,2.91-3.22,0-6.07-.51-8.55-1.53-2.48-1.02-4.42-2.44-5.82-4.27s-2.1-3.8-2.1-5.93h6.88c.12,2.06,1.05,3.69,2.77,4.9,1.72,1.21,4,1.81,6.82,1.81,2.6,0,4.69-.47,6.27-1.41,1.57-.94,2.36-2.2,2.36-3.77Z"/>
    <path class="cls-2" d="M146.2,130.28v8.7h7.51v4.75h-7.51v22.31c0,1.44.33,2.52,1,3.24.67.72,1.81,1.08,3.42,1.08.79,0,1.88-.13,3.27-.4v4.95c-1.81.44-3.57.66-5.28.66-3.07,0-5.39-.83-6.95-2.49-1.56-1.66-2.34-4.02-2.34-7.07v-22.28h-7.33v-4.75h7.33v-8.7h6.88Z"/>
    <path class="cls-2" d="M182.33,144.49c-1.04-.15-2.17-.23-3.38-.23-4.51,0-7.57,1.72-9.19,5.15v25.5h-6.88v-35.93h6.69l.11,4.15c2.26-3.21,5.45-4.81,9.59-4.81,1.34,0,2.36.16,3.05.46v5.71Z"/>
    <path class="cls-2" d="M213.15,174.91c-.4-.71-.72-1.97-.97-3.79-3.2,2.97-7.02,4.45-11.45,4.45-3.97,0-7.22-1-9.76-3-2.54-2-3.81-4.54-3.81-7.62,0-3.74,1.59-6.65,4.78-8.72,3.19-2.07,7.67-3.1,13.44-3.1h6.69v-2.82c0-2.15-.72-3.86-2.16-5.13-1.44-1.27-3.56-1.91-6.36-1.91-2.45,0-4.51.55-6.17,1.66-1.66,1.11-2.49,2.45-2.49,4.02h-6.92c0-1.79.71-3.52,2.14-5.2,1.43-1.67,3.36-2.99,5.8-3.97,2.44-.97,5.12-1.46,8.05-1.46,4.64,0,8.27,1.04,10.9,3.1,2.63,2.07,3.99,4.92,4.09,8.55v16.54c0,3.3.47,5.92,1.41,7.87v.53h-7.21ZM201.73,170.23c2.16,0,4.2-.5,6.14-1.49s3.33-2.29,4.2-3.88v-7.37h-5.39c-8.43,0-12.64,2.2-12.64,6.61,0,1.93.72,3.43,2.16,4.52,1.44,1.08,3.29,1.63,5.54,1.63Z"/>
    <path class="cls-2" d="M238.35,174.91h-6.88v-51h6.88v51Z"/>
    <path class="cls-2" d="M250.54,129.45c0-1,.34-1.84,1.02-2.52.68-.69,1.69-1.03,3.03-1.03s2.36.34,3.05,1.03c.69.69,1.04,1.53,1.04,2.52s-.35,1.83-1.04,2.49c-.69.66-1.71,1-3.05,1s-2.35-.33-3.03-1-1.02-1.49-1.02-2.49ZM257.98,174.91h-6.88v-35.93h6.88v35.93Z"/>
    <path class="cls-2" d="M294.97,174.91c-.4-.71-.72-1.97-.97-3.79-3.2,2.97-7.02,4.45-11.45,4.45-3.97,0-7.22-1-9.76-3-2.54-2-3.81-4.54-3.81-7.62,0-3.74,1.59-6.65,4.78-8.72,3.19-2.07,7.67-3.1,13.44-3.1h6.69v-2.82c0-2.15-.72-3.86-2.16-5.13-1.44-1.27-3.56-1.91-6.36-1.91-2.45,0-4.51.55-6.17,1.66-1.66,1.11-2.49,2.45-2.49,4.02h-6.92c0-1.79.71-3.52,2.14-5.2,1.43-1.67,3.36-2.99,5.8-3.97,2.44-.97,5.12-1.46,8.05-1.46,4.64,0,8.27,1.04,10.9,3.1,2.63,2.07,3.99,4.92,4.09,8.55v16.54c0,3.3.47,5.92,1.41,7.87v.53h-7.21ZM283.55,170.23c2.16,0,4.2-.5,6.14-1.49s3.33-2.29,4.2-3.88v-7.37h-5.39c-8.43,0-12.64,2.2-12.64,6.61,0,1.93.72,3.43,2.16,4.52,1.44,1.08,3.29,1.63,5.54,1.63Z"/>
  </g>
  <g>
    <path class="cls-1" d="M189.45,52.39c9.35-7.74,10.66-23.07,4.5-32.79-4.41-6.95-11.72-12.72-20.36-12.74l-64.54-.14c-13.15-.03-23.83,10.63-23.83,23.78v53.7L21.01,6.71l-13.88-.03v97.07h13.87V27.17s64.23,76.51,64.23,76.51l9.32.03V33.62c0-7.19,5.83-13.01,13.01-13l64.58.05c6.02,0,10.87,5.7,11.59,10.96.92,7.89-4.08,13.82-11.56,14.71h-59.96s0,57.39,0,57.39h63.85c10-.77,18.55-6.29,23.41-15.15,6.86-13.07,2.57-28.48-10.04-36.21ZM186.82,77.41c-.89,6.41-6.31,11.96-12.88,11.98l-52.39.19v-29.12l50.03-.04c9.16-.41,16.59,7.31,15.24,16.99Z"/>
    <rect class="cls-1" x="217.32" y="6.64" width="87.44" height="13.87"/>
    <path class="cls-1" d="M239.61,89.44c-7.17-.02-12.96-5.84-12.96-13.01v-15.96s73.16-.13,73.16-.13v-14.12l-82.49.13v33.53c.01,13.12,10.64,23.76,23.76,23.78h63.67s.02-14.14.02-14.14l-65.16-.1Z"/>
  </g>
</svg>